<svg height="512" viewBox="0 0 32 32" width="512" xmlns="http://www.w3.org/2000/svg"><g id="Layer_9" data-name="Layer 9"><path d="m20.71 17.29a1 1 0 0 1 0 1.42l-4 4a1 1 0 0 1 -1.42 0l-4-4a1 1 0 0 1 1.42-1.42l2.29 2.3v-7.59a1 1 0 0 1 2 0v7.59l2.29-2.3a1 1 0 0 1 1.42 0zm6.29-7.57v17.28a3 3 0 0 1 -3 3h-16a3 3 0 0 1 -3-3v-22a3 3 0 0 1 3-3h12.06a3 3 0 0 1 2.31 1.08l3.93 4.72a3 3 0 0 1 .7 1.92zm-6-5.16v2.44a1 1 0 0 0 1 1h1.86zm4 5.44h-3a3 3 0 0 1 -3-3v-3h-11a1 1 0 0 0 -1 1v22a1 1 0 0 0 1 1h16a1 1 0 0 0 1-1z"/></g></svg>